{"title":"TNA Impact Wrestling HDTV 2014-08-27 720p H264 AVCHD-SC-SDH","uid":10913026,"size":3125576838,"categoryP":"video","categoryS":"hd___tv_shows","magnet":"?xt=urn:btih:fb597195c64214b4ac98c891c7c0ac6b74fd71d0&amp;dn=TNA+Impact+Wrestling+HDTV+2014-08-27+720p+H264+AVCHD-SC-SDH&amp;tr=udp%3A%2F%2Ftracker.openbittorrent.com%3A80&amp;tr=udp%3A%2F%2Fopen.demonii.com%3A1337&amp;tr=udp%3A%2F%2Ftracker.coppersurfer.tk%3A6969&amp;tr=udp%3A%2F%2Fexodus.desync.com%3A6969","seeders":1,"leechers":0,"uploader":"Wrestlepro112","files":4,"time":1409278276,"description":"TNA Impact Wrestling HDTV 2014-08-27 720p H264 AVCHD-SC-SDH \n\n\nTNA Impact Wrestling\nManhatten Center \nNew York City, NY \nAugust 27, 2014\n\nFormat:MPEG-4\nFormat profile:Base Media\nCodec ID:isom\nFile size:2.91 GiB\nDuration:1h 25mn\nOverall bit rate mode:Variable\nOverall bit rate:4 879 Kbps\nEncoded date:UTC 1970-01-01 00:00:00\nTagged date:UTC 1970-01-01 00:00:00\nWriting application:Lavf52.64.2\n\nVideo\nID:1\nFormat:AVC\nFormat/Info:Advanced Video Codec\nFormat profile:&lt;a class=&quot;__cf_email__&quot; href=&quot;/cdn-cgi/l/email-protection&quot; data-cfemail=&quot;5911303e3119156d7768&quot;&gt;[email&amp;#160;protected]&lt;/a&gt;&lt;script cf-hash='f9e31' type=&quot;text/javascript&quot;&gt;\n/* &lt;![CDATA[ */!function(){try{var t=&quot;currentScript&quot;in document?document.currentScript:function(){for(var t=document.getElementsByTagName(&quot;script&quot;),e=t.length;e--;)if(t[e].getAttribute(&quot;cf-hash&quot;))return t[e]}();if(t&amp;&amp;t.previousSibling){var e,r,n,i,c=t.previousSibling,a=c.getAttribute(&quot;data-cfemail&quot;);if(a){for(e=&quot;&quot;,r=parseInt(a.substr(0,2),16),n=2;a.length-n;n+=2)i=parseInt(a.substr(n,2),16)^r,e+=String.fromCharCode(i);e=document.createTextNode(e),c.parentNode.replaceChild(e,c)}}}catch(u){}}();/* ]]&gt; */&lt;/script&gt;\nFormat settings, CABAC:Yes\nFormat settings, ReFrames:3 frames\nCodec ID:avc1\nCodec ID/Info:Advanced Video Coding\nDuration:1h 25mn\nBit rate:4 492 Kbps\nWidth:1280 pixels\nHeight:720 pixels\nDisplay aspect ratio:16:9\nFrame rate mode:Variable\nFrame rate:29.970 fps\nMinimum frame rate:29.970 fps\nMaximum frame rate:30.000 fps\nStandard:Component\nColor space:YUV\nChroma subsampling:4:2:0\nBit depth:8 bits\nScan type:Progressive\nBits/(Pixel*Frame):0.163\nStream size:2.68 GiB (92%)\nEncoded date:UTC 1970-01-01 00:00:00\nTagged date:UTC 1970-01-01 00:00:00\nColor primaries:BT.709\nTransfer characteristics:BT.709\nMatrix coefficients:BT.709\n\nAudio\nID:2\nFormat:AAC\nFormat/Info:Advanced Audio Codec\nFormat profile:LC\nCodec ID:40\nDuration:1h 25mn\nDuration_LastFrame:-21ms\nBit rate mode:Variable\nBit rate:384 Kbps\nChannel(s):2 channels\nChannel positions:Front: L R\nSampling rate:48.0 KHz\nCompression mode:Lossy\nStream size:232 MiB (8%)\nLanguage:English\nEncoded date:UTC 1970-01-01 00:00:00\nTagged date:UTC 1970-01-01 00:00:00","torrent":{"xt":"urn:btih:fb597195c64214b4ac98c891c7c0ac6b74fd71d0","amp;dn":"TNA+Impact+Wrestling+HDTV+2014-08-27+720p+H264+AVCHD-SC-SDH","amp;tr":["udp%3A%2F%2Ftracker.openbittorrent.com%3A80","udp%3A%2F%2Fopen.demonii.com%3A1337","udp%3A%2F%2Ftracker.coppersurfer.tk%3A6969","udp%3A%2F%2Fexodus.desync.com%3A6969"],"infoHash":"fb597195c64214b4ac98c891c7c0ac6b74fd71d0","infoHashBuffer":{"type":"Buffer","data":[251,89,113,149,198,66,20,180,172,152,200,145,199,192,172,107,116,253,113,208]},"announce":[],"urlList":[]}}